<svg width="28" height="28" viewBox="0 0 29 29" fill="none" xmlns="http://www.w3.org/2000/svg">
<path d="M28.4159 26.4874L19.3264 17.3979C20.7369 15.5744 21.4999 13.3449 21.4999 11C21.4999 8.19297 20.4044 5.56098 18.4234 3.57649C16.4424 1.59199 13.8034 0.5 11 0.5C8.19647 0.5 5.55748 1.5955 3.57649 3.57649C1.59199 5.55748 0.5 8.19297 0.5 11C0.5 13.8034 1.5955 16.4424 3.57649 18.4234C5.55748 20.4079 8.19297 21.4999 11 21.4999C13.3449 21.4999 15.5709 20.7369 17.3944 19.3299L26.4839 28.4159C26.5105 28.4425 26.5422 28.4637 26.577 28.4781C26.6118 28.4926 26.6492 28.5 26.6869 28.5C26.7246 28.5 26.7619 28.4926 26.7968 28.4781C26.8316 28.4637 26.8632 28.4425 26.8899 28.4159L28.4159 26.8934C28.4425 26.8667 28.4637 26.8351 28.4781 26.8003C28.4926 26.7654 28.5 26.7281 28.5 26.6904C28.5 26.6527 28.4926 26.6153 28.4781 26.5805C28.4637 26.5457 28.4425 26.514 28.4159 26.4874V26.4874ZM16.5439 16.5439C15.0599 18.0244 13.0929 18.8399 11 18.8399C8.90696 18.8399 6.93997 18.0244 5.45598 16.5439C3.97549 15.0599 3.15999 13.0929 3.15999 11C3.15999 8.90696 3.97549 6.93647 5.45598 5.45598C6.93997 3.97549 8.90696 3.15999 11 3.15999C13.0929 3.15999 15.0634 3.97199 16.5439 5.45598C18.0244 6.93997 18.8399 8.90696 18.8399 11C18.8399 13.0929 18.0244 15.0634 16.5439 16.5439Z" fill="#F8F8F8"/>
</svg>
